# xmcd
#
# Track frame offsets:
# 150
# 12312
# 26482
# 39390
# 55890
# 71892
# 92807
# 104030
# 122572
# 135462
# 159847
# 182865
#
# Disc length: 2663 seconds
#
#
# Revision: 0
# Processed by: cddbd v1.5.2PL0 Copyright (c) Steve Scherf et al.
# Submitted via: Nero 7, 11, 10, 0 
#
DISCID=9f0a650c
DTITLE=Martha's Kitchen - Women Trouble
DYEAR=2001
DGENRE=Blues
TTITLE0=Mama's Cookin'
TTITLE1=Women Trouble
TTITLE2=My Baby Makes More Than Me
TTITLE3=The Road
TTITLE4=Freedom, Choice, Love
TTITLE5=She's The Devil
TTITLE6=I'm Ready
TTITLE7=(Baby) I Miss You
TTITLE8=I Gotta Roll One
TTITLE9=I'll Treat You Right
TTITLE10=I'm Set Free
TTITLE11=You Got To Rock 'Em
EXTD=
EXTT0=Mama's Cookin'
EXTT1=Women Trouble
EXTT2=My Baby Makes More Than Me
EXTT3=The Road
EXTT4=Freedom, Choice, Love
EXTT5=She's The Devil
EXTT6=I'm Ready
EXTT7=(Baby) I Miss You
EXTT8=I Gotta Roll One
EXTT9=I'll Treat You Right
EXTT10=I'm Set Free
EXTT11=You Got To Rock 'Em
PLAYORDER=
